<svg width="48" height="48" viewBox="0 0 48 48" fill="none" xmlns="http://www.w3.org/2000/svg">
<g clip-path="url(#clip0_3_2)">
<path d="M22.3 25.75C23.9667 27.4167 25.7917 28.85 27.775 30.05C29.7583 31.25 31.9 32.1833 34.2 32.85C32.9333 34.35 31.4167 35.5 29.65 36.3C27.8833 37.1 26.0167 37.5 24.05 37.5C20.3167 37.5 17.1333 36.1833 14.5 33.55C11.8667 30.9167 10.55 27.7333 10.55 24C10.55 22.0333 10.95 20.1667 11.75 18.4C12.55 16.6333 13.7 15.1167 15.2 13.85C15.8667 16.15 16.8 18.2917 18 20.275C19.2 22.2583 20.6333 24.0833 22.3 25.75ZM36 30.25C35.5 30.1167 35 29.975 34.5 29.825C34 29.675 33.5167 29.5 33.05 29.3C33.5167 28.5 33.875 27.65 34.125 26.75C34.375 25.85 34.5 24.9333 34.5 24C34.5 21.0667 33.4833 18.5833 31.45 16.55C29.4167 14.5167 26.9333 13.5 24 13.5C23.0667 13.5 22.15 13.625 21.25 13.875C20.35 14.125 19.5 14.4833 18.7 14.95C18.5333 14.4833 18.375 14.0083 18.225 13.525C18.075 13.0417 17.9333 12.55 17.8 12.05C18.7667 11.55 19.775 11.1667 20.825 10.9C21.875 10.6333 22.95 10.5 24.05 10.5C27.7833 10.5 30.9667 11.8167 33.6 14.45C36.2333 17.0833 37.55 20.2667 37.55 24C37.55 25.1 37.4167 26.175 37.15 27.225C36.8833 28.275 36.5 29.2833 36 30.25ZM22.5 6V0H25.5V6H22.5ZM22.5 48V42H25.5V48H22.5ZM37.8 12.35L35.65 10.2L39.9 6L42.05 8.1L37.8 12.35ZM8.1 42L5.95 39.9L10.2 35.65L12.35 37.8L8.1 42ZM42 25.5V22.5H48V25.5H42ZM0 25.5V22.5H6V25.5H0ZM39.9 42.05L35.65 37.8L37.8 35.65L42 39.9L39.9 42.05ZM10.2 12.35L6 8.1L8.1 5.95L12.35 10.2L10.2 12.35Z" fill="#1C3B58"/>
</g>
<defs>
<clipPath id="clip0_3_2">
<rect width="48" height="48" fill="white"/>
</clipPath>
</defs>
</svg>
