<svg width="65" height="55" viewBox="0 0 65 55" fill="none" xmlns="http://www.w3.org/2000/svg">
<path d="M18.1649 55C16.6929 55 15.2689 54.392 13.8929 53.176C12.5489 51.96 11.4129 50.2 10.4849 47.896C9.58888 45.592 9.06088 42.808 8.90088 39.544C7.90888 39.64 6.99688 39.688 6.16488 39.688C4.30888 39.688 2.94887 39.448 2.08488 38.968C1.25287 38.488 0.836875 37.864 0.836875 37.096C0.836875 36.328 1.20487 35.48 1.94088 34.552C2.67688 33.624 3.70088 32.696 5.01288 31.768C6.32488 30.808 7.86088 29.944 9.62088 29.176C10.2289 25.912 11.2049 22.392 12.5489 18.616C13.9249 14.808 15.7649 10.776 18.0689 6.52C18.2929 6.104 18.6289 5.896 19.0769 5.896C19.3649 5.896 19.6209 5.992 19.8449 6.184C20.0689 6.376 20.1809 6.632 20.1809 6.952C20.1809 7.112 20.1329 7.32 20.0369 7.576C17.9889 11.704 16.2769 15.496 14.9009 18.952C13.5569 22.376 12.5009 25.512 11.7329 28.36C13.1729 27.816 14.7089 27.368 16.3409 27.016C17.9729 26.664 19.6369 26.456 21.3329 26.392C21.7809 26.392 22.0049 26.456 22.0049 26.584C22.0049 26.712 21.8449 26.84 21.5249 26.968C21.2369 27.064 20.7409 27.128 20.0369 27.16C18.4689 27.256 16.9649 27.48 15.5249 27.832C14.1169 28.152 12.7889 28.552 11.5409 29.032C11.0609 30.888 10.6929 32.616 10.4369 34.216C10.1809 35.784 10.0209 37.24 9.95688 38.584C13.2529 37.88 16.2449 36.856 18.9329 35.512C21.6529 34.136 24.0529 32.552 26.1329 30.76C28.2129 28.968 29.9569 27.112 31.3649 25.192C32.2609 23.976 32.9009 22.904 33.2849 21.976C33.7009 21.016 33.9089 20.184 33.9089 19.48C33.9089 18.456 33.5889 17.656 32.9489 17.08C32.3089 16.472 31.4609 16.04 30.4049 15.784C29.3489 15.496 28.1969 15.352 26.9489 15.352C25.6369 15.352 24.3089 15.48 22.9649 15.736C21.6209 15.96 20.4049 16.28 19.3169 16.696C19.0609 16.76 18.8849 16.792 18.7889 16.792C18.3729 16.792 18.1649 16.648 18.1649 16.36C18.1649 16.072 18.3409 15.848 18.6929 15.688C22.6289 13.448 25.4289 11.416 27.0929 9.592C28.7569 7.768 29.5889 6.232 29.5889 4.984C29.5889 3.896 29.0769 3.064 28.0529 2.488C27.0609 1.88 25.7489 1.576 24.1169 1.576C22.8369 1.576 21.3969 1.784 19.7969 2.2C18.1969 2.616 16.5489 3.288 14.8529 4.216C13.4449 4.984 12.1649 5.896 11.0129 6.952C9.89288 7.976 8.93288 9.048 8.13287 10.168C7.36488 11.256 6.78888 12.296 6.40488 13.288C6.02088 14.248 5.87688 15.064 5.97288 15.736C5.97288 15.8 5.97288 15.88 5.97288 15.976C6.00488 16.04 6.02088 16.104 6.02088 16.168C6.02088 16.968 5.78088 17.368 5.30088 17.368C5.07688 17.368 4.83688 17.208 4.58088 16.888C4.35688 16.568 4.24488 16.088 4.24488 15.448C4.24488 14.488 4.53288 13.464 5.10888 12.376C5.71688 11.288 6.51688 10.2 7.50888 9.112C8.53288 7.992 9.66888 6.952 10.9169 5.992C12.1649 5 13.4609 4.152 14.8049 3.448C16.5329 2.52 18.2289 1.832 19.8929 1.384C21.5889 0.935998 23.1409 0.711998 24.5489 0.711998C26.5009 0.711998 28.0849 1.096 29.3009 1.864C30.5169 2.632 31.1249 3.704 31.1249 5.08C31.1249 6.36 30.5009 7.848 29.2529 9.544C28.0049 11.24 25.9089 13.112 22.9649 15.16C23.9569 15 24.8849 14.888 25.7489 14.824C26.6129 14.728 27.4129 14.68 28.1489 14.68C30.9009 14.68 32.8849 15.144 34.1009 16.072C35.3489 16.968 35.9729 18.136 35.9729 19.576C35.9729 20.632 35.6689 21.784 35.0609 23.032C34.4849 24.248 33.6689 25.512 32.6129 26.824C31.0769 28.712 29.1409 30.536 26.8049 32.296C24.5009 34.056 21.9089 35.576 19.0289 36.856C16.1809 38.136 13.1409 39 9.90888 39.448C9.84488 42.296 10.1009 44.648 10.6769 46.504C11.2849 48.36 12.0529 49.8 12.9809 50.824C13.9089 51.88 14.8369 52.616 15.7649 53.032C16.6929 53.48 17.4609 53.704 18.0689 53.704C18.5169 53.704 18.8209 53.624 18.9809 53.464C19.1089 53.304 19.3009 53.224 19.5569 53.224C19.8129 53.224 20.0529 53.32 20.2769 53.512C20.5009 53.704 20.6129 53.912 20.6129 54.136C20.6129 54.328 20.5009 54.472 20.2769 54.568C19.5729 54.856 18.8689 55 18.1649 55ZM6.35688 39.064C6.70888 39.064 7.09288 39.032 7.50888 38.968C7.92488 38.936 8.37287 38.888 8.85287 38.824C8.82088 37.48 8.85288 36.072 8.94888 34.6C9.04488 33.128 9.22088 31.592 9.47688 29.992C7.42888 31.048 5.81288 32.232 4.62888 33.544C3.44488 34.824 2.85288 35.96 2.85288 36.952C2.85288 37.56 3.14088 38.056 3.71688 38.44C4.29288 38.856 5.17288 39.064 6.35688 39.064ZM34.2096 42.616C33.8576 42.616 33.5696 42.504 33.3456 42.28C33.0896 42.088 32.9616 41.816 32.9616 41.464C32.9616 41.016 33.1856 40.488 33.6336 39.88C34.0496 39.272 34.7536 38.6 35.7456 37.864C35.9056 37.448 36.0176 37.064 36.0816 36.712C36.1776 36.36 36.2576 35.976 36.3216 35.56C36.5456 34.152 36.9456 32.728 37.5216 31.288C38.0976 29.816 38.6736 28.44 39.2496 27.16C38.6416 27.032 38.0336 26.552 37.4256 25.72C36.8496 24.888 36.5616 24.008 36.5616 23.08C36.5616 22.856 36.6096 22.488 36.7056 21.976C36.8016 21.432 36.9616 21.16 37.1856 21.16C37.4736 21.16 37.6176 21.4 37.6176 21.88C37.6176 22.36 37.6176 22.696 37.6176 22.888C37.6176 23.56 37.8096 24.232 38.1936 24.904C38.5776 25.576 39.0416 26.056 39.5856 26.344C40.1296 25.16 40.8176 23.768 41.6496 22.168C42.4816 20.536 43.4256 18.824 44.4816 17.032C45.5376 15.208 46.6896 13.432 47.9376 11.704C49.1856 9.976 50.4976 8.408 51.8736 7C53.2816 5.592 54.7376 4.472 56.2416 3.64C57.7456 2.808 59.2816 2.392 60.8496 2.392C62.1296 2.392 63.0576 2.728 63.6336 3.4C64.2096 4.04 64.4976 4.92 64.4976 6.04C64.4976 7.224 64.2096 8.584 63.6336 10.12C63.0576 11.656 62.2416 13.256 61.1856 14.92C60.1616 16.552 58.9616 18.152 57.5856 19.72C56.2096 21.256 54.7056 22.664 53.0736 23.944C51.4416 25.192 49.7456 26.184 47.9856 26.92C46.2256 27.656 44.4656 28.024 42.7056 28.024C42.3536 28.024 42.0016 28.008 41.6496 27.976C41.2976 27.912 40.9616 27.816 40.6416 27.688C40.0016 29.192 39.4096 30.696 38.8656 32.2C38.3216 33.704 37.8896 35.272 37.5696 36.904C40.0336 35.4 42.7056 34.312 45.5856 33.64C48.4656 32.968 51.3456 32.632 54.2256 32.632C54.9936 32.632 55.8736 32.776 56.8656 33.064C57.8576 33.32 58.7056 33.736 59.4096 34.312C60.1456 34.888 60.5136 35.672 60.5136 36.664C60.5136 37.464 60.4336 37.864 60.2736 37.864C60.1136 37.864 59.9216 37.576 59.6976 37C59.2496 35.848 58.5456 35.128 57.5856 34.84C56.6256 34.52 55.5696 34.36 54.4176 34.36C52.4656 34.36 50.7856 34.456 49.3776 34.648C48.0016 34.808 46.7216 35.064 45.5376 35.416C44.3856 35.768 43.1856 36.2 41.9376 36.712C40.6896 37.224 39.2176 37.816 37.5216 38.488C37.2656 39.96 36.7856 41.016 36.0816 41.656C35.4096 42.296 34.7856 42.616 34.2096 42.616ZM42.4656 27.16C44.1616 27.16 45.8416 26.792 47.5056 26.056C49.2016 25.288 50.8176 24.28 52.3536 23.032C53.9216 21.752 55.3616 20.344 56.6736 18.808C57.9856 17.272 59.1216 15.72 60.0816 14.152C61.0736 12.552 61.8416 11.048 62.3856 9.64C62.9296 8.2 63.2016 6.984 63.2016 5.992C63.2016 5.256 63.0256 4.68 62.6736 4.264C62.3536 3.848 61.8416 3.64 61.1376 3.64C59.9536 3.64 58.7056 4.056 57.3936 4.888C56.1136 5.72 54.8016 6.84 53.4576 8.248C52.1136 9.656 50.8016 11.208 49.5216 12.904C48.2736 14.6 47.0896 16.328 45.9696 18.088C44.8816 19.816 43.9056 21.464 43.0416 23.032C42.1776 24.568 41.5056 25.864 41.0256 26.92C41.1856 27.016 41.4256 27.08 41.7456 27.112C42.0656 27.144 42.3056 27.16 42.4656 27.16Z" fill="#6FC0CB"/>
</svg>
